<svg xmlns="http://www.w3.org/2000/svg" xmlns:xlink="http://www.w3.org/1999/xlink" width="58" height="58" viewBox="0 0 58 58">
  <defs>
    <filter id="Path_31" x="12.683" y="8.37" width="32" height="40.502" filterUnits="userSpaceOnUse">
      <feOffset dy="4" input="SourceAlpha"/>
      <feGaussianBlur stdDeviation="5" result="blur"/>
      <feFlood flood-color="#fff" flood-opacity="0.502"/>
      <feComposite operator="in" in2="blur"/>
      <feComposite in="SourceGraphic"/>
    </filter>
    <filter id="Path_32" x="8.37" y="12.683" width="40.502" height="32" filterUnits="userSpaceOnUse">
      <feOffset dy="4" input="SourceAlpha"/>
      <feGaussianBlur stdDeviation="5" result="blur-2"/>
      <feFlood flood-color="#fff" flood-opacity="0.502"/>
      <feComposite operator="in" in2="blur-2"/>
      <feComposite in="SourceGraphic"/>
    </filter>
    <filter id="Path_30" x="0" y="0" width="58" height="58" filterUnits="userSpaceOnUse">
      <feOffset dy="4" input="SourceAlpha"/>
      <feGaussianBlur stdDeviation="5" result="blur-3"/>
      <feFlood flood-color="#fff" flood-opacity="0.502"/>
      <feComposite operator="in" in2="blur-3"/>
      <feComposite in="SourceGraphic"/>
    </filter>
  </defs>
  <g id="Group_5" data-name="Group 5" transform="translate(-21 -604)">
    <g transform="matrix(1, 0, 0, 1, 21, 604)" filter="url(#Path_31)">
      <path id="Path_31-2" data-name="Path 31" d="M0,0V10.5" transform="translate(28.68 19.37)" fill="none" stroke="#a6c98a" stroke-width="2"/>
    </g>
    <g transform="matrix(1, 0, 0, 1, 21, 604)" filter="url(#Path_32)">
      <path id="Path_32-2" data-name="Path 32" d="M0,0V10.5" transform="translate(33.87 24.68) rotate(90)" fill="none" stroke="#a6c98a" stroke-width="2"/>
    </g>
    <g transform="matrix(1, 0, 0, 1, 21, 604)" filter="url(#Path_30)">
      <g id="Path_30-2" data-name="Path 30" transform="translate(15 11)" fill="none">
        <path d="M14,0A14,14,0,1,1,0,14,14,14,0,0,1,14,0Z" stroke="none"/>
        <path d="M 14 3 C 11.06179046630859 3 8.299449920654297 4.144199371337891 6.221820831298828 6.221820831298828 C 4.144199371337891 8.299449920654297 3 11.06179046630859 3 14 C 3 16.93819999694824 4.144199371337891 19.7005500793457 6.221820831298828 21.77816963195801 C 8.299449920654297 23.85580062866211 11.06179046630859 25 14 25 C 16.93819999694824 25 19.70053863525391 23.85580062866211 21.77816963195801 21.77816963195801 C 23.85580062866211 19.70053863525391 25 16.93819999694824 25 14 C 25 11.06179046630859 23.85580062866211 8.299449920654297 21.77816963195801 6.221820831298828 C 19.7005500793457 4.144199371337891 16.93819999694824 3 14 3 M 14 0 C 21.73197937011719 0 28 6.268009185791016 28 14 C 28 21.73197937011719 21.73197937011719 28 14 28 C 6.268009185791016 28 0 21.73197937011719 0 14 C 0 6.268009185791016 6.268009185791016 0 14 0 Z" stroke="none" fill="#a6c98a"/>
      </g>
    </g>
  </g>
</svg>
